<?xml version="1.0" encoding="UTF-8"?>
<svg xmlns="http://www.w3.org/2000/svg" version="1.1" width="3" height="33" viewBox="0 0 3 33">
  <path style="fill:#000000;stroke:none;" d="m 1,1 0,2 2,0 0,-2 z m 0,5 0,2 2,0 0,-2 z m 0,5 0,2 2,0 0,-2 z m 0,5 0,2 2,0 0,-2 z m 0,5 0,2 2,0 0,-2 z m 0,5 0,2 2,0 0,-2 z m 0,5 0,2 2,0 0,-2 z"/>
  <path style="fill:#FFFFFF;fill-opacity:0.8;stroke:none;" d="m 0,0 0,2 2,0 0,-2 z m 0,5 0,2 2,0 0,-2 z m 0,5 0,2 2,0 0,-2 z m 0,5 0,2 2,0 0,-2 z m 0,5 0,2 2,0 0,-2 z m 0,5 0,2 2,0 0,-2 z m 0,5 0,2 2,0 0,-2 z"/>
</svg>
